# xmcd
#
# Track frame offsets:
# 150
# 14427
# 24204
#
# Disc length: 1152 seconds
#
#
# Revision: 0
# Processed by: cddbd v1.5.1PL0 Copyright (c) Steve Scherf et al.
# Submitted via: FreeRIP 2.942 
#
DISCID=15047e03
DTITLE=Diana Krall - All for you
DYEAR=1900
DGENRE=Blues
TTITLE0=Deed I Do
TTITLE1=If I Had You
TTITLE2=Baby, Baby All the Time
EXTD=
EXTT0=
EXTT1=
EXTT2=
PLAYORDER=
